$MeshFormat
4.1 0 8
$EndMeshFormat
$PhysicalNames
3
0 1 "Initial nodes"
1 1 "Outer border"
2 1 "Material 1"
$EndPhysicalNames
$Entities
4 4 1 0
1 -1 -1 0 1 1 
2 1 -1 0 1 1 
3 1 1 0 1 1 
4 -1 1 0 1 1 
1 -1 -1 0 1 -1 0 1 1 2 1 -2 
2 1 -1 0 1 1 0 1 1 2 2 -3 
3 -1 1 0 1 1 0 1 1 2 3 -4 
4 -1 -1 0 -1 1 0 1 1 2 4 -1 
1 -1 -1 0 1 1 0 1 1 4 1 2 3 4 
$EndEntities
$Nodes
9 81 1 81
0 1 0 1
1
-1 -1 0
0 2 0 1
2
1 -1 0
0 3 0 1
3
1 1 0
0 4 0 1
4
-1 1 0
1 1 0 7
5
6
7
8
9
10
11
-0.7500000000004167 -1 0
-0.5000000000011573 -1 0
-0.250000000001955 -1 0
-2.752797989558076e-12 -1 0
0.2499999999979354 -1 0
0.4999999999986235 -1 0
0.7499999999993117 -1 0
1 2 0 7
12
13
14
15
16
17
18
1 -0.7500000000004167 0
1 -0.5000000000011573 0
1 -0.250000000001955 0
1 -2.752797989558076e-12 0
1 0.2499999999979354 0
1 0.4999999999986235 0
1 0.7499999999993117 0
1 3 0 7
19
20
21
22
23
24
25
0.7500000000004167 1 0
0.5000000000011573 1 0
0.250000000001955 1 0
2.752797989558076e-12 1 0
-0.2499999999979354 1 0
-0.4999999999986235 1 0
-0.7499999999993117 1 0
1 4 0 7
26
27
28
29
30
31
32
-1 0.7500000000004167 0
-1 0.5000000000011573 0
-1 0.250000000001955 0
-1 2.752797989558076e-12 0
-1 -0.2499999999979354 0
-1 -0.4999999999986235 0
-1 -0.7499999999993117 0
2 1 0 49
33
34
35
36
37
38
39
40
41
42
43
44
45
46
47
48
49
50
51
52
53
54
55
56
57
58
59
60
61
62
63
64
65
66
67
68
69
70
71
72
73
74
75
76
77
78
79
80
81
2.752797989558076e-12 -2.752742478406844e-12 0
-0.5000000000013765 -0.4999999999986235 0
-0.4999999999986235 0.5000000000013765 0
0.5000000000013765 -0.5000000000013763 0
0 -0.5000000000013765 0
0.5000000000013765 0.4999999999986237 0
0.5000000000013765 -2.75277023398246e-12 0
-0.4999999999986237 2.775557561562891e-17 0
2.752797989558076e-12 0.4999999999986236 0
-0.2500000000020646 -0.7499999999993118 0
-0.5000000000012669 -0.7499999999993118 0
-0.7500000000006882 -0.4999999999986235 0
-0.7500000000005786 -0.7499999999993118 0
-0.7500000000006882 -0.2499999999979354 0
-0.7499999999993118 0.2500000000020646 0
-0.7499999999993118 0.5000000000012669 0
-0.4999999999986235 0.7500000000006882 0
-0.7499999999993118 0.7500000000005786 0
-0.2499999999979354 0.7500000000006882 0
0.2499999999993118 -0.7500000000006882 0
-1.376398994779038e-12 -0.7500000000006882 0
0.5 -0.7500000000006881 0
0.2500000000006882 -0.5000000000013765 0
0.7500000000006882 -0.7500000000006881 0
0.2500000000020646 -0.2500000000020646 0
1.376398994779038e-12 -0.2500000000020646 0
0.7500000000006882 0.2499999999979354 0
0.7500000000006882 -2.752784111770268e-12 0
0.7500000000006882 0.4999999999986236 0
0.5000000000013765 0.2499999999979354 0
0.7500000000006882 0.7499999999993119 0
0.2500000000020646 0.2499999999979354 0
0.2500000000020646 -2.752756356194652e-12 0
-0.5 -0.2499999999993118 0
-0.7499999999993119 1.376412872566846e-12 0
-0.2500000000006882 -0.5 0
-0.2499999999993118 -0.2500000000006882 0
-0.2499999999979354 -1.376357361415614e-12 0
-0.2499999999979354 0.5 0
2.752797989558076e-12 0.7499999999993119 0
-0.4999999999986236 0.2500000000006882 0
-0.2499999999979354 0.2499999999993118 0
2.752797989558076e-12 0.2499999999979354 0
0.5000000000012669 0.7499999999993119 0
0.250000000001955 0.7499999999993118 0
0.2500000000020646 0.4999999999986237 0
0.7500000000006882 -0.5000000000012668 0
0.7500000000006882 -0.250000000001955 0
0.5000000000013765 -0.2500000000020646 0
$EndNodes
$Elements
9 164 1 164
0 1 15 1
1 1 
0 2 15 1
2 2 
0 3 15 1
3 3 
0 4 15 1
4 4 
1 1 1 8
5 1 5 
6 5 6 
7 6 7 
8 7 8 
9 8 9 
10 9 10 
11 10 11 
12 11 2 
1 2 1 8
13 2 12 
14 12 13 
15 13 14 
16 14 15 
17 15 16 
18 16 17 
19 17 18 
20 18 3 
1 3 1 8
21 3 19 
22 19 20 
23 20 21 
24 21 22 
25 22 23 
26 23 24 
27 24 25 
28 25 4 
1 4 1 8
29 4 26 
30 26 27 
31 27 28 
32 28 29 
33 29 30 
34 30 31 
35 31 32 
36 32 1 
2 1 2 128
37 8 42 7 
38 42 43 7 
39 42 34 43 
40 7 43 6 
41 34 44 43 
42 44 45 43 
43 44 31 45 
44 43 45 6 
45 34 46 44 
46 46 30 44 
47 46 29 30 
48 44 30 31 
49 6 45 5 
50 45 32 5 
51 45 31 32 
52 5 32 1 
53 29 47 28 
54 47 48 28 
55 47 35 48 
56 28 48 27 
57 35 49 48 
58 49 50 48 
59 49 24 50 
60 48 50 27 
61 35 51 49 
62 51 23 49 
63 51 22 23 
64 49 23 24 
65 27 50 26 
66 50 25 26 
67 50 24 25 
68 26 25 4 
69 8 9 53 
70 9 52 53 
71 9 10 52 
72 53 52 37 
73 10 54 52 
74 54 55 52 
75 54 36 55 
76 52 55 37 
77 10 11 54 
78 11 56 54 
79 11 2 56 
80 54 56 36 
81 37 55 58 
82 55 57 58 
83 55 36 57 
84 58 57 33 
85 15 16 60 
86 16 59 60 
87 16 17 59 
88 60 59 39 
89 17 61 59 
90 61 62 59 
91 61 38 62 
92 59 62 39 
93 17 18 61 
94 18 63 61 
95 18 3 63 
96 61 63 38 
97 39 62 65 
98 62 64 65 
99 62 38 64 
100 65 64 33 
101 29 46 67 
102 46 66 67 
103 46 34 66 
104 67 66 40 
105 34 68 66 
106 68 69 66 
107 68 37 69 
108 66 69 40 
109 34 42 68 
110 42 53 68 
111 42 8 53 
112 68 53 37 
113 40 69 70 
114 69 58 70 
115 69 37 58 
116 70 58 33 
117 22 51 72 
118 51 71 72 
119 51 35 71 
120 72 71 41 
121 35 73 71 
122 73 74 71 
123 73 40 74 
124 71 74 41 
125 35 47 73 
126 47 67 73 
127 47 29 67 
128 73 67 40 
129 41 74 75 
130 74 70 75 
131 74 40 70 
132 75 70 33 
133 3 19 63 
134 19 76 63 
135 19 20 76 
136 63 76 38 
137 20 77 76 
138 77 78 76 
139 77 41 78 
140 76 78 38 
141 20 21 77 
142 21 72 77 
143 21 22 72 
144 77 72 41 
145 38 78 64 
146 78 75 64 
147 78 41 75 
148 64 75 33 
149 2 12 56 
150 12 79 56 
151 12 13 79 
152 56 79 36 
153 13 80 79 
154 80 81 79 
155 80 39 81 
156 79 81 36 
157 13 14 80 
158 14 60 80 
159 14 15 60 
160 80 60 39 
161 36 81 57 
162 81 65 57 
163 81 39 65 
164 57 65 33 
$EndElements
