$MeshFormat
4.1 0 8
$EndMeshFormat
$PhysicalNames
3
0 1 "Initial nodes"
1 1 "Outer border"
2 1 "Material 1"
$EndPhysicalNames
$Entities
4 4 1 0
1 -1 -1 0 1 1 
2 1 -1 0 1 1 
3 1 1 0 1 1 
4 -1 1 0 1 1 
1 -1 -1 0 1 -1 0 1 1 2 1 -2 
2 1 -1 0 1 1 0 1 1 2 2 -3 
3 -1 1 0 1 1 0 1 1 2 3 -4 
4 -1 -1 0 -1 1 0 1 1 2 4 -1 
1 -1 -1 0 1 1 0 1 1 4 1 2 3 4 
$EndEntities
$Nodes
9 9 1 9
0 1 0 1
1
-1 -1 0
0 2 0 1
2
1 -1 0
0 3 0 1
3
1 1 0
0 4 0 1
4
-1 1 0
1 1 0 1
5
-2.752797989558076e-12 -1 0
1 2 0 1
6
1 -2.752797989558076e-12 0
1 3 0 1
7
2.752797989558076e-12 1 0
1 4 0 1
8
-1 2.752797989558076e-12 0
2 1 0 1
9
2.752797989558076e-12 -2.752742478406844e-12 0
$EndNodes
$Elements
9 20 1 20
0 1 15 1
1 1 
0 2 15 1
2 2 
0 3 15 1
3 3 
0 4 15 1
4 4 
1 1 1 2
5 1 5 
6 5 2 
1 2 1 2
7 2 6 
8 6 3 
1 3 1 2
9 3 7 
10 7 4 
1 4 1 2
11 4 8 
12 8 1 
2 1 2 8
13 5 8 1 
14 8 7 4 
15 5 2 9 
16 6 3 9 
17 8 5 9 
18 7 8 9 
19 3 7 9 
20 2 6 9 
$EndElements
