$MeshFormat
4.1 0 8
$EndMeshFormat
$PhysicalNames
3
0 1 "Initial nodes"
1 1 "Outer border"
2 1 "Material 1"
$EndPhysicalNames
$Entities
4 4 1 0
1 -1 -1 0 1 1 
2 1 -1 0 1 1 
3 1 1 0 1 1 
4 -1 1 0 1 1 
1 -1 -1 0 1 -1 0 1 1 2 1 -2 
2 1 -1 0 1 1 0 1 1 2 2 -3 
3 -1 1 0 1 1 0 1 1 2 3 -4 
4 -1 -1 0 -1 1 0 1 1 2 4 -1 
1 -1 -1 0 1 1 0 1 1 4 1 2 3 4 
$EndEntities
$Nodes
9 25 1 25
0 1 0 1
1
-1 -1 0
0 2 0 1
2
1 -1 0
0 3 0 1
3
1 1 0
0 4 0 1
4
-1 1 0
1 1 0 3
5
6
7
-0.5000000000011573 -1 0
-2.752797989558076e-12 -1 0
0.4999999999986235 -1 0
1 2 0 3
8
9
10
1 -0.5000000000011573 0
1 -2.752797989558076e-12 0
1 0.4999999999986235 0
1 3 0 3
11
12
13
0.5000000000011573 1 0
2.752797989558076e-12 1 0
-0.4999999999986235 1 0
1 4 0 3
14
15
16
-1 0.5000000000011573 0
-1 2.752797989558076e-12 0
-1 -0.4999999999986235 0
2 1 0 9
17
18
19
20
21
22
23
24
25
2.752797989558076e-12 -2.752742478406844e-12 0
-0.5000000000013765 -0.4999999999986235 0
-0.4999999999986235 0.5000000000013765 0
0.5000000000013765 -0.5000000000013763 0
0 -0.5000000000013765 0
0.5000000000013765 0.4999999999986237 0
0.5000000000013765 -2.75277023398246e-12 0
-0.4999999999986237 2.775557561562891e-17 0
2.752797989558076e-12 0.4999999999986236 0
$EndNodes
$Elements
9 52 1 52
0 1 15 1
1 1 
0 2 15 1
2 2 
0 3 15 1
3 3 
0 4 15 1
4 4 
1 1 1 4
5 1 5 
6 5 6 
7 6 7 
8 7 2 
1 2 1 4
9 2 8 
10 8 9 
11 9 10 
12 10 3 
1 3 1 4
13 3 11 
14 11 12 
15 12 13 
16 13 4 
1 4 1 4
17 4 14 
18 14 15 
19 15 16 
20 16 1 
2 1 2 32
21 6 18 5 
22 18 16 5 
23 18 15 16 
24 5 16 1 
25 15 19 14 
26 19 13 14 
27 19 12 13 
28 14 13 4 
29 6 7 21 
30 7 20 21 
31 7 2 20 
32 21 20 17 
33 9 10 23 
34 10 22 23 
35 10 3 22 
36 23 22 17 
37 15 18 24 
38 18 21 24 
39 18 6 21 
40 24 21 17 
41 12 19 25 
42 19 24 25 
43 19 15 24 
44 25 24 17 
45 3 11 22 
46 11 25 22 
47 11 12 25 
48 22 25 17 
49 2 8 20 
50 8 23 20 
51 8 9 23 
52 20 23 17 
$EndElements
