$MeshFormat
4.1 0 8
$EndMeshFormat
$PhysicalNames
4
0 1 "Initial nodes"
1 1 "Outer border"
1 2 "All lines"
2 1 "Material 1"
$EndPhysicalNames
$Entities
4 4 1 0
1 -1 -1 0 1 1 
2 1 -1 0 1 1 
3 1 1 0 1 1 
4 -1 1 0 1 1 
1 -1 -1 0 1 -1 0 2 1 2 2 1 -2 
2 1 -1 0 1 1 0 2 1 2 2 2 -3 
3 -1 1 0 1 1 0 2 1 2 2 3 -4 
4 -1 -1 0 -1 1 0 2 1 2 2 4 -1 
1 -1 -1 0 1 1 0 1 1 4 1 2 3 4 
$EndEntities
$Nodes
9 441 1 441
0 1 0 1
1
-1 -1 0
0 2 0 1
2
1 -1 0
0 3 0 1
3
1 1 0
0 4 0 1
4
-1 1 0
1 1 0 19
5
6
7
8
9
10
11
12
13
14
15
16
17
18
19
20
21
22
23
-0.9000000000002774 -1 0
-0.8000000000005548 -1 0
-0.7000000000008322 -1 0
-0.6000000000011096 -1 0
-0.500000000001387 -1 0
-0.4000000000016644 -1 0
-0.3000000000019418 -1 0
-0.2000000000022192 -1 0
-0.1000000000024964 -1 0
-2.752242878045763e-12 -1 0
0.09999999999750342 -1 0
0.1999999999977808 -1 0
0.2999999999980583 -1 0
0.3999999999983355 -1 0
0.4999999999986129 -1 0
0.5999999999988903 -1 0
0.699999999999168 -1 0
0.7999999999994454 -1 0
0.8999999999997226 -1 0
1 2 0 19
24
25
26
27
28
29
30
31
32
33
34
35
36
37
38
39
40
41
42
1 -0.9000000000002774 0
1 -0.8000000000005548 0
1 -0.7000000000008322 0
1 -0.6000000000011096 0
1 -0.500000000001387 0
1 -0.4000000000016644 0
1 -0.3000000000019418 0
1 -0.2000000000022192 0
1 -0.1000000000024964 0
1 -2.752242878045763e-12 0
1 0.09999999999750342 0
1 0.1999999999977808 0
1 0.2999999999980583 0
1 0.3999999999983355 0
1 0.4999999999986129 0
1 0.5999999999988903 0
1 0.699999999999168 0
1 0.7999999999994454 0
1 0.8999999999997226 0
1 3 0 19
43
44
45
46
47
48
49
50
51
52
53
54
55
56
57
58
59
60
61
0.9000000000002774 1 0
0.8000000000005548 1 0
0.7000000000008322 1 0
0.6000000000011096 1 0
0.500000000001387 1 0
0.4000000000016644 1 0
0.3000000000019418 1 0
0.2000000000022192 1 0
0.1000000000024964 1 0
2.752242878045763e-12 1 0
-0.09999999999750342 1 0
-0.1999999999977808 1 0
-0.2999999999980583 1 0
-0.3999999999983355 1 0
-0.4999999999986129 1 0
-0.5999999999988903 1 0
-0.699999999999168 1 0
-0.7999999999994454 1 0
-0.8999999999997226 1 0
1 4 0 19
62
63
64
65
66
67
68
69
70
71
72
73
74
75
76
77
78
79
80
-1 0.9000000000002774 0
-1 0.8000000000005548 0
-1 0.7000000000008322 0
-1 0.6000000000011096 0
-1 0.500000000001387 0
-1 0.4000000000016644 0
-1 0.3000000000019418 0
-1 0.2000000000022192 0
-1 0.1000000000024964 0
-1 2.752242878045763e-12 0
-1 -0.09999999999750342 0
-1 -0.1999999999977808 0
-1 -0.2999999999980583 0
-1 -0.3999999999983355 0
-1 -0.4999999999986129 0
-1 -0.5999999999988903 0
-1 -0.699999999999168 0
-1 -0.7999999999994454 0
-1 -0.8999999999997226 0
2 1 0 361
81
82
83
84
85
86
87
88
89
90
91
92
93
94
95
96
97
98
99
100
101
102
103
104
105
106
107
108
109
110
111
112
113
114
115
116
117
118
119
120
121
122
123
124
125
126
127
128
129
130
131
132
133
134
135
136
137
138
139
140
141
142
143
144
145
146
147
148
149
150
151
152
153
154
155
156
157
158
159
160
161
162
163
164
165
166
167
168
169
170
171
172
173
174
175
176
177
178
179
180
181
182
183
184
185
186
187
188
189
190
191
192
193
194
195
196
197
198
199
200
201
202
203
204
205
206
207
208
209
210
211
212
213
214
215
216
217
218
219
220
221
222
223
224
225
226
227
228
229
230
231
232
233
234
235
236
237
238
239
240
241
242
243
244
245
246
247
248
249
250
251
252
253
254
255
256
257
258
259
260
261
262
263
264
265
266
267
268
269
270
271
272
273
274
275
276
277
278
279
280
281
282
283
284
285
286
287
288
289
290
291
292
293
294
295
296
297
298
299
300
301
302
303
304
305
306
307
308
309
310
311
312
313
314
315
316
317
318
319
320
321
322
323
324
325
326
327
328
329
330
331
332
333
334
335
336
337
338
339
340
341
342
343
344
345
346
347
348
349
350
351
352
353
354
355
356
357
358
359
360
361
362
363
364
365
366
367
368
369
370
371
372
373
374
375
376
377
378
379
380
381
382
383
384
385
386
387
388
389
390
391
392
393
394
395
396
397
398
399
400
401
402
403
404
405
406
407
408
409
410
411
412
413
414
415
416
417
418
419
420
421
422
423
424
425
426
427
428
429
430
431
432
433
434
435
436
437
438
439
440
441
0.09999999999724768 -0.9000000000000001 0
-0.9000000000000001 2.496503004323358e-12 0
2.762956530233396e-12 0.9000000000002666 0
0.9000000000000001 -2.496503004323358e-12 0
-0.39999999999828 0.8999999999997588 0
0.8999999999997228 0.2999999999980583 0
0.9000000000002775 -0.4000000000016644 0
-0.8999999999997228 -0.2999999999980583 0
-0.3000000000019326 -0.9000000000002681 0
0.3000000000019202 0.9000000000002624 0
-0.9000000000002775 0.4000000000016644 0
0.4999999999985461 -0.8999999999997714 0
-0.6999999999993192 0.8999999999998324 0
0.9000000000002775 -0.7000000000008322 0
-0.8999999999997226 -0.5999999999988905 0
0.8999999999997226 0.5999999999988905 0
-0.7000000000008322 -0.9000000000002775 0
0.7000000000008322 0.9000000000002775 0
-0.9000000000002775 0.8000000000005547 0
0.8999999999997649 -0.8999999999999631 0
-0.8999999999997228 -0.7999999999994454 0
0.8999999999997228 0.7999999999994454 0
-0.8000000000005548 -0.9000000000002775 0
0.8000000000005548 0.9000000000002775 0
0.2999999999980582 -0.8999999999997227 0
-0.19999999999777 0.8999999999997335 0
-2.54166826474389e-12 -0.9000000000002202 0
0.9000000000002772 -0.2000000000022191 0
-0.9000000000002772 0.2000000000022191 0
-0.8999999999997227 -0.3999999999983356 0
0.7999999999994563 -0.8999999999997548 0
0.8999999999997335 0.0999999999975143 0
-0.8999999999997335 -0.0999999999975143 0
0.8999999999997227 0.3999999999983356 0
0.6999999999991467 -0.8999999999997925 0
-0.5999999999988903 0.8999999999997226 0
-0.1000000000024965 -0.9000000000002772 0
-0.4000000000016644 -0.9000000000002774 0
0.1000000000024965 0.9000000000002772 0
0.4000000000016644 0.9000000000002774 0
-0.9000000000002774 0.6000000000011096 0
0.9000000000002774 -0.6000000000011096 0
-0.5000000000013871 -0.9000000000002774 0
0.5000000000013871 0.9000000000002774 0
-0.9000000000000199 0.9000000000001124 0
-0.9000000000000001 -0.9000000000000001 0
0.9000000000000001 0.9000000000000001 0
-2.501293278351759e-12 -0.8000000000004925 0
0.8000000000001893 -2.296510204224944e-12 0
0.1000000000025121 0.8000000000005281 0
-0.8000000000001992 2.286608402624069e-12 0
0.7999999999996286 0.2999999999981861 0
0.4000000000015877 0.800000000000478 0
-0.7999999999996821 -0.2999999999982345 0
-0.3000000000018681 -0.8000000000004697 0
-0.6999999999990933 0.7999999999995195 0
0.8000000000004774 -0.7000000000009097 0
-0.8000000000002971 0.8000000000000198 0
0.1999999999972585 -0.8999999999999891 0
-0.09999999999723698 0.9 0
-0.8999999999999325 -0.1999999999975818 0
0.8999999999999225 0.1999999999975917 0
0.3999999999981951 -0.8999999999998488 0
0.9000000000002568 -0.1000000000024613 0
-0.2999999999979103 0.8999999999998569 0
-0.9000000000002366 0.1000000000024276 0
-0.8999999999998015 -0.4999999999985341 0
0.599999999998844 -0.8999999999997688 0
-0.8999999999997664 -0.6999999999991241 0
0.8999999999997623 0.6999999999991282 0
0.8999999999997804 0.4999999999985553 0
-0.4999999999985861 0.8999999999997493 0
0.9000000000002762 -0.3000000000019406 0
0.9000000000002462 -0.5000000000013558 0
-0.200000000002196 -0.9000000000002543 0
0.2000000000021934 0.9000000000002516 0
-0.4000000000015654 -0.8000000000004486 0
-0.9000000000002357 0.3000000000019 0
-0.6000000000010512 -0.9000000000002191 0
0.6000000000010502 0.9000000000002181 0
-0.9000000000002168 0.5000000000013265 0
-0.9000000000001981 0.7000000000007528 0
-0.7999999999998219 0.8999999999998217 0
0.9000000000000772 -0.7999999999998 0
-0.7000000000006849 -0.8000000000004075 0
-0.7999999999997028 -0.8000000000002574 0
0.7000000000006832 0.8000000000004059 0
0.7999999999997013 0.800000000000256 0
0.7999999999993014 -0.799999999999589 0
-0.299999999997814 0.7999999999998253 0
-0.8000000000004791 0.4000000000016984 0
0.3999999999980779 -0.7999999999998594 0
0.80000000000055 -0.400000000001668 0
-0.3000000000017761 -0.7000000000006842 0
-0.7999999999996554 -0.4999999999986858 0
0.7999999999996155 0.4999999999986733 0
-0.7999999999998966 -0.1999999999978672 0
0.7999999999998268 0.1999999999978587 0
-0.1000000000022528 -0.8000000000005241 0
0.2000000000022735 0.8000000000004902 0
0.5000000000014022 0.8000000000004629 0
-0.500000000001412 -0.8000000000004571 0
0.700000000000513 -0.6999999999996246 0
-0.7999999999991282 0.699999999999985 0
0.1999999999981486 -0.8000000000000795 0
0.09999999999746201 -0.8000000000002717 0
-0.8000000000000489 -0.09999999999765696 0
-0.0999999999978459 0.8000000000000759 0
2.760777717547569e-12 0.8000000000005152 0
0.7999999999998632 0.09999999999757384 0
0.5999999999987876 -0.7999999999995938 0
-0.4999999999985552 0.7999999999995296 0
-0.8000000000004985 0.1000000000020391 0
-0.7999999999996812 -0.3999999999983728 0
0.8000000000004106 -0.1000000000022175 0
0.7999999999996299 0.3999999999983597 0
-0.5999999999989467 0.7999999999995759 0
-0.7999999999995893 -0.6999999999990678 0
0.7999999999995786 0.6999999999990743 0
0.8000000000005073 -0.6000000000011259 0
-0.2000000000021078 -0.8000000000004754 0
0.6999999999992208 -0.7999999999996419 0
0.8000000000005004 -0.2000000000021407 0
-0.8000000000004943 0.2000000000021172 0
0.3000000000018793 0.8000000000004631 0
0.6000000000007965 0.8000000000003313 0
-0.6000000000008018 -0.800000000000336 0
-0.800000000000443 0.6000000000011608 0
0.7000000000005766 -0.1000000000021613 0
0.1000000000023121 0.7000000000007299 0
-0.700000000000743 0.1000000000020421 0
0.09999999999800868 -0.7000000000004699 0
0.6999999999998265 0.1999999999979286 0
-0.6999999999999666 -0.199999999997955 0
-0.6999999999996949 -0.3999999999984793 0
-0.5000000000009115 -0.7000000000005668 0
0.4000000000013502 0.7000000000006084 0
0.6999999999995544 0.3999999999986422 0
0.6000000000004013 -0.6999999999996599 0
-0.599999999998608 0.6999999999995232 0
-0.700000000000501 0.6000000000000429 0
-0.1000000000022591 -0.7000000000007646 0
2.141024791320267e-12 0.7000000000005825 0
0.4999999999981333 -0.7999999999996673 0
-0.3999999999979247 0.7999999999996121 0
0.7000000000006412 -0.5999999999997584 0
-0.7999999999996135 -0.5999999999988274 0
0.7999999999995933 0.5999999999988309 0
0.2999999999980498 -0.7999999999998215 0
-0.1999999999977769 0.7999999999998024 0
-0.7000000000004115 2.27291796495166e-12 0
-0.8000000000004265 0.3000000000018893 0
0.7000000000002936 -2.306513941481503e-12 0
0.8000000000005141 -0.3000000000019253 0
-0.2000000000019746 -0.7000000000006739 0
0.8000000000004541 -0.5000000000013338 0
-0.8000000000003449 0.5000000000012889 0
0.2000000000020002 0.7000000000007003 0
0.5000000000009114 0.7000000000005777 0
-0.6999999999991027 0.699999999999494 0
-0.4000000000013483 -0.700000000000609 0
-0.6999999999995923 -0.7000000000004106 0
0.6999999999995743 0.7000000000004016 0
0.1000000000018743 0.6000000000008476 0
-0.6000000000009688 0.1000000000020472 0
-0.1000000000021596 -0.6000000000009496 0
0.6000000000007311 -0.100000000002185 0
0.6000000000007705 -0.5999999999997653 0
-0.6000000000005434 0.5999999999995657 0
-0.3000000000014958 -0.6000000000008215 0
0.3999999999979533 -0.6999999999999558 0
-0.2999999999978831 0.6999999999998107 0
0.4000000000010501 0.6000000000007742 0
-0.6999999999995981 -0.6000000000003952 0
0.6999999999995624 0.6000000000003707 0
-0.4999999999985943 0.6999999999995159 0
0.7000000000006834 -0.400000000000901 0
-0.7000000000005747 0.4000000000011427 0
0.5000000000006235 -0.6999999999997355 0
-0.6999999999996406 -0.4999999999986858 0
0.6999999999995679 0.4999999999986658 0
-2.47769860184377e-12 -0.7000000000007379 0
-0.700000000000208 -0.09999999999775169 0
0.700000000000049 0.09999999999772011 0
-0.6999999999997861 -0.2999999999982448 0
0.6999999999996563 0.2999999999982819 0
-0.7000000000006975 0.2000000000020924 0
0.7000000000007117 -0.2000000000019814 0
0.1999999999981195 -0.7000000000002318 0
-0.09999999999785797 0.7000000000002157 0
0.3000000000016252 0.7000000000006408 0
-0.4000000000010573 -0.6000000000007562 0
-0.5999999999996422 -0.7000000000003858 0
0.5999999999996203 0.7000000000003773 0
-0.7000000000004936 0.5000000000005631 0
0.7000000000006378 -0.5000000000002511 0
-0.600000000000104 -0.1999999999981281 0
-0.3000000000009682 -0.5000000000009763 0
0.5999999999998857 0.1999999999983462 0
-0.5000000000005832 0.5999999999995556 0
0.09999999999833767 -0.6000000000006208 0
-0.6000000000009033 0.2000000000018415 0
0.6000000000008593 -0.2000000000020401 0
0.200000000001646 0.6000000000008379 0
-0.5999999999996851 -0.3999999999987294 0
-0.59999999999967 -0.5000000000004247 0
0.5999999999995923 0.6000000000004072 0
0.5000000000008129 -0.5999999999998877 0
0.5999999999995788 0.4999999999986313 0
-2.21687709761571e-12 -0.6000000000008957 0
-0.3999999999982448 0.6999999999996582 0
0.5999999999996922 0.2999999999985835 0
-0.5000000000009207 -0.6000000000006943 0
-0.199999999997869 0.6999999999999976 0
0.2999999999980092 -0.6999999999999666 0
0.7000000000007054 -0.3000000000015424 0
0.6000000000004279 -2.281725734280352e-12 0
-0.6000000000006459 2.218222133754111e-12 0
2.005306965453746e-12 0.6000000000007157 0
-0.700000000000591 0.3000000000018713 0
-0.2000000000019405 -0.6000000000008447 0
0.3000000000011979 0.6000000000008091 0
-0.5999999999996418 -0.6000000000004295 0
0.5000000000009315 0.6000000000006964 0
0.6000000000009287 -0.4000000000000947 0
0.600000000000765 -0.4999999999998991 0
-0.6000000000007816 0.4000000000002614 0
-0.6000000000005187 0.4999999999996408 0
0.1000000000016503 0.5000000000009801 0
-1.666997393298278e-12 -0.5000000000010382 0
-0.5000000000011704 0.1000000000020547 0
0.5000000000009921 -0.200000000002055 0
-0.1999999999979598 0.6000000000000727 0
0.4999999999999994 0.1999999999987544 0
0.3000000000011779 0.5000000000009369 0
-0.4000000000006412 0.5999999999996949 0
-0.400000000000492 -0.5000000000008207 0
0.2999999999983503 -0.600000000000132 0
0.4000000000007406 -0.6000000000000657 0
-0.6000000000003501 -0.09999999999785791 0
0.6000000000001087 0.0999999999978171 0
-0.5999999999998531 -0.2999999999984001 0
-0.09999999999794619 0.6000000000003907 0
0.1999999999981629 -0.6000000000004329 0
0.5999999999996011 0.3999999999986195 0
0.5000000000010593 -0.4000000000000297 0
0.5000000000009002 -0.4999999999999736 0
0.5000000000008811 -0.1000000000021858 0
-0.5000000000008893 0.3999999999997486 0
-0.500000000000595 0.4999999999996319 0
-0.1000000000016799 -0.5000000000010676 0
-0.2000000000013673 -0.5000000000010184 0
-0.4999999999997669 -0.4000000000005065 0
-0.4999999999997617 -0.5000000000007859 0
-0.6000000000007906 0.3000000000009508 0
0.4000000000010345 0.5000000000008772 0
0.4999999999996445 0.5000000000007621 0
0.6000000000008604 -0.3000000000002438 0
-0.1000000000013019 -0.4000000000013125 0
0.4000000000011297 -0.2000000000020482 0
-0.5000000000004731 -0.09999999999849173 0
0.1999999999982469 -0.5000000000005892 0
0.3000000000011507 0.4000000000010532 0
-0.4999999999999459 -0.300000000000635 0
0.5000000000002525 0.09999999999819217 0
-0.09999999999810616 0.5000000000004932 0
0.4999999999997222 0.299999999998861 0
-0.5000000000010897 0.2000000000018682 0
0.2999999999996581 -0.5000000000003579 0
-0.2999999999981696 0.5999999999999065 0
0.3999999999997336 0.4000000000009662 0
0.5000000000005621 -2.161216807368878e-12 0
-0.5000000000008226 2.061816396941649e-12 0
-0.2000000000013668 -0.4000000000011915 0
1.849333517011162e-12 0.5000000000008579 0
0.4000000000011927 -0.4000000000001039 0
-0.400000000000938 0.3999999999998083 0
-0.4000000000006846 0.4999999999997846 0
0.0999999999983399 -0.5000000000007999 0
0.4999999999996709 0.4000000000008319 0
0.4000000000007745 -0.5000000000001308 0
0.200000000001314 0.5000000000010034 0
-0.3999999999999024 -0.4000000000010776 0
0.5000000000009979 -0.3000000000019175 0
-0.5000000000008804 0.2999999999998897 0
1.734669121307893e-12 0.4000000000009634 0
-0.4000000000013583 0.1000000000020586 0
-0.1000000000015449 -0.3000000000014906 0
-0.4000000000001223 -0.3000000000011432 0
0.4000000000002903 0.09999999999887048 0
0.09999999999841452 -0.4000000000009675 0
0.3000000000013422 -0.4000000000003955 0
-0.4000000000010216 0.2999999999998845 0
-0.5000000000002763 -0.1999999999983213 0
-0.4000000000009956 1.325196896662106e-12 0
-0.3000000000010525 0.4000000000000083 0
-0.199999999998276 0.5000000000001393 0
-0.3000000000007898 0.5000000000000162 0
-1.482987344036957e-12 -0.400000000001292 0
0.4000000000001057 0.1999999999987643 0
0.2999999999998521 0.3000000000011717 0
0.1000000000013493 0.4000000000010927 0
0.399999999999796 0.3000000000010711 0
0.4000000000010208 -0.1000000000021879 0
0.2000000000012815 0.4000000000011342 0
-0.3000000000000613 -0.4000000000011535 0
0.4000000000011573 -0.3000000000011774 0
-0.3000000000015365 0.100000000001147 0
-0.2000000000012582 0.400000000000245 0
0.3000000000012459 -0.2000000000014906 0
-0.4000000000004191 -0.2000000000008161 0
-0.3000000000012178 0.3000000000002693 0
-0.300000000000251 -0.3000000000013114 0
0.1000000000008807 0.3000000000012415 0
-0.09999999999812306 0.4000000000006151 0
0.1999999999989318 -0.40000000000074 0
-0.4000000000006527 -0.09999999999849518 0
0.3000000000004694 0.09999999999979596 0
0.3000000000002194 0.2000000000011161 0
0.4000000000006834 -2.025729451907022e-12 0
-1.4145143389932e-12 -0.300000000001463 0
-0.200000000001369 -0.3000000000013675 0
0.3000000000012896 -0.3000000000005447 0
0.1999999999999817 0.3000000000012639 0
-0.4000000000012487 0.2000000000000435 0
-0.1000000000012403 -0.2000000000016648 0
0.3000000000008118 -8.024865494338229e-13 0
-0.3000000000008352 -0.1000000000011619 0
-0.1000000000006981 0.3000000000007764 0
1.738852117849632e-12 0.3000000000012399 0
-0.3000000000011696 1.32101274363805e-12 0
0.2000000000005479 0.1000000000014289 0
0.3000000000011349 -0.1000000000019021 0
0.08479017742712915 0.2017969801494104 0
-0.2000000000004174 -0.2000000000015339 0
0.2000000000003621 0.2000000000013958 0
-0.3000000000005993 -0.2000000000014744 0
-0.200000000001311 0.3000000000003901 0
0.0999999999988459 -0.3000000000011483 0
0.200000000001445 -0.30000000000091 0
-0.300000000001415 0.2000000000009807 0
0.1211324865407274 0.1211324865416728 0
-0.2000000000017063 0.1000000000011512 0
0.2000000000013067 -0.100000000000835 0
-0.2000000000013456 -2.225835256849014e-13 0
0.2000000000009563 1.56894636171856e-12 0
-0.005998012420408021 0.2052997178349389 0
0.1000000000005792 -0.2000000000013243 0
-1.411898375991427e-12 -0.2000000000016346 0
-0.1000000000005891 -0.1000000000018365 0
-0.2000000000008822 -0.1000000000013721 0
0.2000000000014255 -0.2000000000010632 0
-0.10099966873791 0.2008832863065408 0
-0.2000000000015691 0.2000000000005443 0
0.005382694849099284 0.1080544969424135 0
0.1000000000014617 -0.1000000000014526 0
0.1044420326421692 0.0320266350716521 0
-0.1000000000015068 -2.003106014392131e-12 0
-7.553818681671487e-13 -0.1000000000018009 0
-0.1000000000018645 0.1000000000010623 0
-1.663669202400797e-12 1.689572093344083e-12 0
$EndNodes
$Elements
9 884 1 884
0 1 15 1
1 1 
0 2 15 1
2 2 
0 3 15 1
3 3 
0 4 15 1
4 4 
1 1 1 20
5 1 5 
6 5 6 
7 6 7 
8 7 8 
9 8 9 
10 9 10 
11 10 11 
12 11 12 
13 12 13 
14 13 14 
15 14 15 
16 15 16 
17 16 17 
18 17 18 
19 18 19 
20 19 20 
21 20 21 
22 21 22 
23 22 23 
24 23 2 
1 2 1 20
25 2 24 
26 24 25 
27 25 26 
28 26 27 
29 27 28 
30 28 29 
31 29 30 
32 30 31 
33 31 32 
34 32 33 
35 33 34 
36 34 35 
37 35 36 
38 36 37 
39 37 38 
40 38 39 
41 39 40 
42 40 41 
43 41 42 
44 42 3 
1 3 1 20
45 3 43 
46 43 44 
47 44 45 
48 45 46 
49 46 47 
50 47 48 
51 48 49 
52 49 50 
53 50 51 
54 51 52 
55 52 53 
56 53 54 
57 54 55 
58 55 56 
59 56 57 
60 57 58 
61 58 59 
62 59 60 
63 60 61 
64 61 4 
1 4 1 20
65 4 62 
66 62 63 
67 63 64 
68 64 65 
69 65 66 
70 66 67 
71 67 68 
72 68 69 
73 69 70 
74 70 71 
75 71 72 
76 72 73 
77 73 74 
78 74 75 
79 75 76 
80 76 77 
81 77 78 
82 78 79 
83 79 80 
84 80 1 
2 1 2 800
85 436 437 441 
86 436 426 437 
87 422 435 437 
88 422 414 435 
89 437 435 441 
90 24 23 2 
91 438 439 441 
92 439 436 441 
93 410 409 427 
94 395 409 410 
95 395 389 409 
96 377 389 395 
97 396 372 420 
98 349 372 396 
99 425 438 440 
100 440 438 441 
101 419 396 420 
102 419 420 428 
103 419 428 429 
104 429 428 439 
105 424 426 436 
106 318 319 349 
107 342 349 396 
108 397 391 408 
109 342 318 349 
110 374 391 397 
111 318 251 319 
112 397 408 411 
113 411 408 425 
114 423 411 425 
115 423 425 440 
116 377 378 389 
117 377 350 378 
118 350 316 378 
119 291 316 350 
120 251 259 319 
121 251 224 259 
122 424 407 426 
123 398 399 412 
124 398 380 399 
125 428 436 439 
126 374 344 391 
127 322 344 374 
128 380 383 399 
129 380 347 383 
130 347 360 383 
131 347 325 360 
132 414 427 435 
133 427 433 435 
134 427 409 433 
135 289 287 337 
136 261 287 289 
137 285 286 333 
138 285 260 286 
139 261 255 287 
140 260 254 286 
141 227 254 260 
142 228 255 261 
143 413 407 424 
144 400 407 413 
145 400 370 407 
146 345 370 400 
147 352 345 400 
148 321 345 352 
149 136 138 184 
150 198 166 242 
151 184 162 208 
152 199 168 243 
153 138 162 184 
154 136 93 138 
155 101 166 198 
156 102 168 199 
157 186 185 212 
158 139 185 186 
159 138 93 163 
160 186 212 262 
161 262 212 290 
162 320 277 341 
163 214 277 320 
164 353 341 375 
165 320 341 353 
166 438 430 439 
167 139 105 185 
168 367 353 375 
169 367 375 388 
170 263 214 320 
171 187 177 263 
172 212 281 290 
173 177 214 263 
174 290 281 310 
175 141 177 187 
176 290 310 331 
177 331 310 339 
178 164 137 169 
179 101 103 166 
180 102 104 168 
181 103 101 126 
182 104 102 127 
183 16 105 139 
184 189 188 223 
185 291 256 316 
186 140 188 189 
187 111 164 169 
188 321 279 345 
189 192 256 291 
190 213 279 321 
191 224 191 259 
192 210 189 223 
193 210 223 244 
194 264 213 321 
195 225 192 291 
196 322 285 344 
197 190 178 264 
198 178 213 264 
199 140 106 188 
200 215 285 322 
201 142 178 190 
202 92 191 224 
203 265 215 322 
204 333 317 363 
205 415 430 431 
206 431 430 438 
207 317 333 334 
208 111 100 164 
209 279 292 314 
210 85 192 225 
211 194 215 265 
212 279 266 292 
213 266 218 292 
214 220 240 249 
215 53 106 140 
216 141 88 177 
217 196 218 266 
218 220 197 240 
219 191 202 219 
220 93 60 163 
221 194 175 215 
222 24 25 100 
223 142 86 178 
224 435 440 441 
225 435 433 440 
226 101 80 126 
227 102 42 127 
228 416 414 422 
229 394 414 416 
230 333 286 334 
231 432 424 436 
232 413 424 432 
233 196 176 218 
234 191 148 202 
235 286 293 334 
236 74 88 141 
237 192 197 220 
238 147 175 194 
239 143 92 224 
240 293 286 303 
241 402 415 417 
242 417 415 431 
243 14 15 107 
244 15 81 107 
245 33 34 84 
246 71 72 82 
247 100 25 164 
248 36 86 142 
249 145 85 225 
250 82 72 113 
251 144 195 203 
252 151 176 196 
253 204 193 211 
254 84 34 112 
255 146 193 204 
256 368 339 401 
257 368 401 406 
258 73 74 141 
259 52 53 140 
260 204 211 267 
261 192 116 197 
262 203 195 268 
263 35 36 142 
264 148 115 202 
265 433 434 440 
266 107 81 128 
267 433 418 434 
268 258 307 308 
269 149 101 198 
270 267 211 282 
271 33 84 144 
272 172 224 251 
273 18 92 143 
274 361 356 372 
275 275 258 308 
276 61 4 125 
277 71 82 146 
278 294 252 313 
279 80 1 126 
280 42 3 127 
281 150 102 199 
282 323 313 346 
283 327 356 361 
284 378 376 389 
285 331 339 354 
286 354 339 368 
287 355 346 366 
288 113 72 141 
289 23 24 100 
290 323 346 355 
291 294 313 323 
292 55 85 145 
293 358 376 378 
294 147 95 175 
295 373 348 405 
296 82 113 131 
297 365 348 373 
298 172 143 224 
299 144 84 195 
300 112 34 142 
301 227 198 254 
302 146 82 193 
303 170 145 225 
304 83 52 140 
305 81 139 186 
306 170 252 294 
307 88 110 134 
308 228 199 255 
309 83 140 189 
310 282 348 365 
311 151 96 176 
312 181 239 274 
313 335 282 365 
314 115 111 169 
315 84 112 129 
316 113 141 187 
317 206 181 274 
318 152 116 192 
319 182 216 273 
320 171 258 275 
321 105 17 143 
322 237 171 275 
323 358 357 376 
324 207 182 273 
325 4 62 125 
326 86 114 132 
327 1 5 126 
328 3 43 127 
329 330 357 358 
330 276 257 306 
331 425 408 431 
332 77 95 147 
333 425 431 438 
334 15 16 139 
335 95 198 227 
336 336 351 360 
337 257 305 306 
338 106 54 145 
339 110 147 194 
340 112 142 190 
341 267 282 335 
342 96 199 228 
343 183 200 226 
344 229 172 251 
345 337 336 360 
346 300 267 335 
347 105 143 172 
348 175 227 260 
349 114 151 196 
350 388 423 434 
351 368 406 415 
352 272 317 334 
353 402 368 415 
354 421 388 434 
355 20 115 148 
356 168 167 243 
357 170 225 252 
358 176 228 261 
359 78 101 149 
360 40 102 150 
361 116 93 197 
362 428 432 436 
363 293 272 334 
364 76 77 147 
365 25 26 164 
366 166 165 242 
367 332 331 354 
368 39 96 151 
369 88 75 110 
370 236 173 276 
371 125 138 163 
372 134 194 265 
373 183 137 200 
374 246 331 332 
375 253 336 337 
376 301 246 332 
377 92 148 191 
378 72 73 141 
379 412 416 422 
380 132 196 266 
381 304 253 337 
382 230 170 294 
383 62 99 125 
384 53 54 106 
385 93 136 197 
386 343 381 383 
387 16 17 105 
388 105 172 229 
389 197 136 240 
390 412 399 416 
391 22 100 111 
392 106 145 170 
393 88 134 177 
394 173 257 276 
395 160 124 206 
396 169 183 202 
397 95 149 198 
398 351 343 383 
399 311 367 405 
400 404 394 416 
401 159 123 207 
402 34 35 142 
403 21 111 115 
404 348 311 405 
405 5 103 126 
406 96 150 199 
407 43 104 127 
408 110 75 147 
409 381 385 404 
410 315 343 351 
411 103 97 166 
412 104 98 168 
413 408 417 431 
414 381 343 385 
415 85 152 192 
416 382 394 404 
417 38 39 151 
418 241 272 293 
419 408 391 417 
420 86 132 178 
421 385 382 404 
422 26 94 164 
423 216 241 293 
424 124 181 206 
425 175 95 227 
426 324 318 342 
427 117 179 201 
428 295 251 318 
429 336 315 351 
430 86 37 114 
431 309 382 385 
432 176 96 228 
433 362 309 385 
434 295 318 324 
435 123 182 207 
436 327 326 356 
437 325 289 360 
438 97 165 166 
439 202 183 219 
440 363 278 386 
441 98 167 168 
442 229 251 295 
443 359 342 371 
444 324 342 359 
445 284 244 362 
446 244 309 362 
447 115 169 202 
448 138 99 162 
449 306 326 327 
450 114 37 151 
451 106 170 230 
452 58 116 152 
453 203 268 296 
454 317 278 363 
455 326 305 364 
456 359 371 379 
457 379 371 401 
458 92 19 148 
459 305 338 364 
460 383 381 399 
461 17 18 143 
462 201 179 222 
463 95 77 149 
464 315 284 362 
465 302 284 315 
466 74 75 88 
467 238 210 284 
468 250 278 317 
469 339 379 401 
470 96 39 150 
471 217 253 304 
472 213 266 279 
473 214 265 277 
474 219 183 248 
475 409 418 433 
476 109 204 232 
477 132 114 196 
478 216 157 241 
479 177 134 214 
480 158 109 232 
481 393 402 417 
482 252 291 350 
483 81 15 139 
484 239 217 304 
485 286 254 303 
486 184 221 240 
487 54 55 145 
488 409 389 418 
489 134 110 194 
490 192 220 256 
491 296 268 338 
492 210 244 284 
493 218 289 325 
494 271 238 302 
495 182 157 216 
496 133 217 239 
497 185 229 269 
498 167 206 243 
499 211 245 282 
500 21 22 111 
501 22 23 100 
502 256 220 280 
503 372 403 420 
504 174 250 272 
505 255 243 274 
506 272 250 317 
507 58 93 116 
508 82 131 193 
509 60 61 163 
510 165 207 242 
511 241 174 272 
512 215 260 285 
513 254 242 303 
514 57 58 152 
515 218 261 289 
516 218 176 261 
517 78 79 101 
518 79 80 101 
519 259 219 288 
520 40 41 102 
521 41 42 102 
522 20 21 115 
523 201 222 235 
524 36 37 86 
525 238 284 302 
526 181 133 239 
527 292 325 347 
528 180 130 238 
529 252 225 291 
530 269 229 295 
531 285 333 344 
532 226 200 236 
533 75 76 147 
534 215 175 260 
535 255 274 287 
536 360 351 383 
537 195 209 268 
538 253 217 271 
539 268 209 283 
540 85 56 152 
541 77 78 149 
542 19 20 148 
543 273 293 303 
544 178 132 213 
545 39 40 150 
546 213 132 266 
547 214 134 265 
548 188 230 270 
549 155 117 201 
550 221 208 237 
551 332 354 386 
552 278 332 386 
553 130 210 238 
554 37 38 151 
555 249 221 275 
556 287 274 304 
557 18 19 92 
558 209 247 283 
559 209 129 233 
560 161 171 237 
561 253 271 302 
562 329 307 335 
563 315 362 385 
564 292 218 325 
565 316 280 358 
566 242 273 303 
567 191 219 259 
568 308 329 330 
569 280 249 308 
570 59 60 93 
571 66 67 161 
572 58 59 93 
573 205 180 271 
574 343 315 385 
575 313 350 377 
576 357 329 373 
577 133 205 217 
578 135 174 241 
579 258 300 307 
580 277 322 374 
581 270 294 323 
582 278 301 332 
583 232 267 300 
584 211 131 231 
585 278 250 301 
586 217 205 271 
587 370 380 398 
588 279 314 345 
589 256 280 316 
590 56 57 152 
591 180 238 271 
592 28 29 154 
593 169 137 183 
594 349 361 372 
595 29 87 154 
596 376 357 392 
597 157 135 241 
598 280 308 330 
599 90 156 205 
600 234 203 296 
601 55 56 85 
602 154 173 236 
603 344 333 369 
604 174 135 201 
605 269 295 324 
606 61 125 163 
607 253 315 336 
608 136 184 240 
609 270 230 294 
610 314 347 380 
611 287 304 337 
612 185 105 229 
613 297 321 352 
614 370 314 380 
615 316 358 378 
616 233 264 297 
617 349 319 361 
618 280 330 358 
619 313 252 350 
620 235 246 301 
621 131 187 231 
622 199 243 255 
623 248 226 276 
624 259 288 319 
625 346 377 395 
626 277 265 322 
627 220 249 280 
628 314 292 347 
629 312 328 340 
630 109 146 204 
631 345 314 370 
632 198 242 254 
633 333 363 369 
634 319 288 361 
635 370 398 407 
636 329 365 373 
637 32 33 144 
638 174 235 250 
639 344 369 391 
640 392 373 421 
641 288 327 361 
642 312 247 328 
643 330 329 357 
644 369 363 393 
645 328 352 384 
646 384 400 413 
647 398 412 426 
648 356 326 364 
649 384 352 400 
650 389 376 418 
651 288 248 327 
652 399 381 416 
653 70 71 146 
654 393 386 402 
655 312 340 387 
656 338 312 364 
657 418 392 434 
658 308 307 329 
659 340 390 403 
660 407 398 426 
661 394 410 414 
662 242 207 273 
663 426 412 437 
664 246 222 262 
665 390 413 432 
666 340 384 390 
667 387 340 403 
668 364 312 387 
669 129 190 233 
670 289 337 360 
671 248 306 327 
672 184 208 221 
673 428 420 432 
674 249 275 308 
675 120 90 133 
676 366 395 410 
677 346 313 377 
678 51 52 119 
679 297 264 321 
680 369 393 417 
681 247 297 328 
682 243 206 274 
683 283 312 338 
684 13 14 117 
685 357 373 392 
686 212 269 281 
687 223 270 299 
688 366 346 395 
689 283 247 312 
690 381 404 416 
691 231 263 298 
692 235 222 246 
693 307 300 335 
694 306 305 326 
695 329 335 365 
696 135 89 155 
697 340 328 384 
698 355 366 382 
699 391 369 417 
700 394 366 410 
701 298 320 353 
702 299 323 355 
703 376 392 418 
704 390 384 413 
705 414 410 427 
706 341 374 397 
707 221 237 275 
708 68 109 158 
709 250 235 301 
710 97 159 165 
711 258 232 300 
712 50 119 156 
713 309 355 382 
714 246 290 331 
715 356 364 387 
716 392 421 434 
717 133 90 205 
718 434 423 440 
719 171 158 232 
720 253 302 315 
721 209 233 247 
722 372 387 403 
723 420 390 432 
724 195 129 209 
725 341 277 374 
726 98 160 167 
727 339 310 379 
728 382 366 394 
729 328 297 352 
730 122 28 154 
731 193 131 211 
732 208 161 237 
733 232 204 267 
734 375 397 411 
735 123 118 182 
736 29 30 87 
737 219 248 288 
738 309 299 355 
739 135 155 201 
740 125 99 138 
741 388 375 411 
742 67 91 161 
743 371 396 419 
744 299 270 323 
745 310 359 379 
746 363 386 393 
747 247 233 297 
748 372 356 387 
749 401 371 419 
750 12 117 155 
751 415 406 430 
752 371 342 396 
753 118 89 157 
754 373 405 421 
755 430 429 439 
756 406 401 429 
757 153 108 234 
758 8 123 159 
759 354 368 402 
760 87 30 153 
761 401 419 429 
762 311 298 353 
763 388 411 423 
764 246 262 290 
765 298 263 320 
766 188 106 230 
767 212 185 269 
768 405 388 421 
769 200 154 236 
770 310 281 359 
771 233 190 264 
772 244 299 309 
773 128 186 262 
774 375 341 397 
775 46 124 160 
776 403 390 420 
777 119 83 130 
778 52 83 119 
779 107 128 179 
780 406 429 430 
781 248 276 306 
782 311 353 367 
783 108 32 144 
784 109 70 146 
785 281 324 359 
786 245 298 311 
787 281 269 324 
788 30 31 108 
789 31 32 108 
790 223 188 270 
791 244 223 299 
792 89 135 157 
793 84 129 195 
794 305 296 338 
795 174 201 235 
796 30 108 153 
797 231 187 263 
798 245 231 298 
799 211 231 245 
800 90 50 156 
801 117 107 179 
802 89 12 155 
803 282 311 348 
804 240 221 249 
805 156 130 180 
806 14 107 117 
807 257 296 305 
808 268 283 338 
809 124 120 181 
810 226 236 276 
811 167 160 206 
812 282 245 311 
813 386 354 402 
814 64 121 162 
815 257 234 296 
816 367 388 405 
817 165 159 207 
818 91 68 158 
819 183 226 248 
820 222 128 262 
821 156 180 205 
822 131 113 187 
823 91 158 171 
824 119 130 156 
825 50 51 119 
826 120 133 181 
827 12 13 117 
828 118 157 182 
829 97 8 159 
830 87 153 173 
831 121 66 161 
832 98 46 160 
833 173 153 234 
834 128 81 186 
835 11 12 89 
836 171 232 258 
837 49 50 90 
838 68 69 109 
839 69 70 109 
840 179 128 222 
841 129 112 190 
842 173 234 257 
843 122 154 200 
844 99 64 162 
845 27 28 122 
846 161 91 171 
847 10 11 118 
848 9 10 118 
849 154 87 173 
850 130 83 189 
851 48 49 120 
852 47 48 120 
853 130 189 210 
854 8 9 123 
855 67 68 91 
856 121 161 208 
857 273 216 293 
858 46 47 124 
859 108 203 234 
860 26 27 94 
861 108 144 203 
862 274 239 304 
863 11 89 118 
864 7 8 97 
865 94 122 200 
866 45 46 98 
867 49 90 120 
868 64 65 121 
869 65 66 121 
870 162 121 208 
871 9 118 123 
872 47 120 124 
873 94 27 122 
874 137 94 200 
875 62 63 99 
876 63 64 99 
877 6 7 103 
878 5 6 103 
879 44 45 104 
880 43 44 104 
881 7 97 103 
882 94 137 164 
883 45 98 104 
884 412 422 437 
$EndElements
